<mxfile host="app.diagrams.net" modified="2021-02-21T23:18:13.096Z" agent="5.0 (Windows NT 10.0; Win64; x64) AppleWebKit/537.36 (KHTML, like Gecko) Chrome/88.0.4324.146 Safari/537.36" etag="qmqac5uRtnOlyQZQWV5E" version="14.3.2" type="github" pages="2">
  <diagram id="VPs-nOhRTvNkiQXe-sPf" name="Page-1">
    <mxGraphModel dx="4028" dy="1134" grid="1" gridSize="10" guides="1" tooltips="1" connect="1" arrows="1" fold="1" page="1" pageScale="1" pageWidth="827" pageHeight="1169" math="0" shadow="0">
      <root>
        <mxCell id="0" />
        <mxCell id="1" parent="0" />
        <mxCell id="9mMsN4pHwQtWmOrZcYsb-1" value="" style="rounded=0;whiteSpace=wrap;html=1;" parent="1" vertex="1">
          <mxGeometry x="210" y="65" width="400" height="520" as="geometry" />
        </mxCell>
        <mxCell id="9mMsN4pHwQtWmOrZcYsb-2" value="&lt;font style=&quot;font-size: 36px&quot;&gt;MainActivity&lt;/font&gt;" style="text;html=1;strokeColor=none;fillColor=none;align=center;verticalAlign=middle;whiteSpace=wrap;rounded=0;" parent="1" vertex="1">
          <mxGeometry x="354" y="260" width="120" height="70" as="geometry" />
        </mxCell>
        <mxCell id="9mMsN4pHwQtWmOrZcYsb-8" style="edgeStyle=orthogonalEdgeStyle;rounded=0;orthogonalLoop=1;jettySize=auto;html=1;exitX=0;exitY=0.5;exitDx=0;exitDy=0;entryX=0.5;entryY=0;entryDx=0;entryDy=0;" parent="1" source="9mMsN4pHwQtWmOrZcYsb-39" target="9mMsN4pHwQtWmOrZcYsb-11" edge="1">
          <mxGeometry relative="1" as="geometry">
            <mxPoint x="-20" y="670" as="targetPoint" />
            <mxPoint x="275" y="584.9999999999998" as="sourcePoint" />
          </mxGeometry>
        </mxCell>
        <mxCell id="9mMsN4pHwQtWmOrZcYsb-27" style="edgeStyle=orthogonalEdgeStyle;rounded=0;orthogonalLoop=1;jettySize=auto;html=1;exitX=0.5;exitY=1;exitDx=0;exitDy=0;" parent="1" target="9mMsN4pHwQtWmOrZcYsb-20" edge="1">
          <mxGeometry relative="1" as="geometry">
            <mxPoint x="410" y="584.9999999999998" as="sourcePoint" />
          </mxGeometry>
        </mxCell>
        <mxCell id="9mMsN4pHwQtWmOrZcYsb-11" value="" style="rounded=0;whiteSpace=wrap;html=1;" parent="1" vertex="1">
          <mxGeometry x="-413" y="670" width="400" height="520" as="geometry" />
        </mxCell>
        <mxCell id="9mMsN4pHwQtWmOrZcYsb-28" style="edgeStyle=orthogonalEdgeStyle;rounded=0;orthogonalLoop=1;jettySize=auto;html=1;exitX=0;exitY=0.5;exitDx=0;exitDy=0;" parent="1" source="9mMsN4pHwQtWmOrZcYsb-16" target="9mMsN4pHwQtWmOrZcYsb-29" edge="1">
          <mxGeometry relative="1" as="geometry">
            <mxPoint x="-600" y="735.4117647058824" as="targetPoint" />
          </mxGeometry>
        </mxCell>
        <mxCell id="9mMsN4pHwQtWmOrZcYsb-16" value="&lt;font size=&quot;3&quot;&gt;Card 1&lt;/font&gt;" style="rounded=0;whiteSpace=wrap;html=1;" parent="1" vertex="1">
          <mxGeometry x="-393" y="740" width="360" height="110" as="geometry" />
        </mxCell>
        <mxCell id="9mMsN4pHwQtWmOrZcYsb-17" value="&lt;span style=&quot;font-size: medium&quot;&gt;Card 2&lt;/span&gt;" style="rounded=0;whiteSpace=wrap;html=1;" parent="1" vertex="1">
          <mxGeometry x="-393" y="870" width="360" height="110" as="geometry" />
        </mxCell>
        <mxCell id="9mMsN4pHwQtWmOrZcYsb-18" value="&lt;span style=&quot;font-size: medium&quot;&gt;Card 3&lt;/span&gt;" style="rounded=0;whiteSpace=wrap;html=1;" parent="1" vertex="1">
          <mxGeometry x="-393" y="1000" width="360" height="110" as="geometry" />
        </mxCell>
        <mxCell id="9mMsN4pHwQtWmOrZcYsb-20" value="" style="rounded=0;whiteSpace=wrap;html=1;" parent="1" vertex="1">
          <mxGeometry x="210" y="670" width="400" height="520" as="geometry" />
        </mxCell>
        <mxCell id="9mMsN4pHwQtWmOrZcYsb-29" value="&lt;font size=&quot;3&quot;&gt;Business name:&lt;br&gt;Phone:&lt;br&gt;Email:&lt;br&gt;(of course should look like a bossiness&amp;nbsp;card, clickable phone number/email)&lt;br&gt;&lt;/font&gt;" style="rounded=0;whiteSpace=wrap;html=1;" parent="1" vertex="1">
          <mxGeometry x="-970" y="740" width="360" height="110" as="geometry" />
        </mxCell>
        <mxCell id="9mMsN4pHwQtWmOrZcYsb-32" value="&lt;font size=&quot;3&quot;&gt;Search bar&lt;/font&gt;" style="rounded=0;whiteSpace=wrap;html=1;" parent="1" vertex="1">
          <mxGeometry x="-210" y="680" width="180" height="40" as="geometry" />
        </mxCell>
        <mxCell id="9mMsN4pHwQtWmOrZcYsb-39" value="Card Icon&lt;br&gt;(other ppl&#39;s card)" style="rounded=0;whiteSpace=wrap;html=1;" parent="1" vertex="1">
          <mxGeometry x="210" y="520" width="140" height="65" as="geometry" />
        </mxCell>
        <mxCell id="9mMsN4pHwQtWmOrZcYsb-40" value="profile Icon" style="rounded=0;whiteSpace=wrap;html=1;" parent="1" vertex="1">
          <mxGeometry x="490" y="520" width="120" height="65" as="geometry" />
        </mxCell>
        <mxCell id="9mMsN4pHwQtWmOrZcYsb-47" value="Card Icon&lt;br&gt;(other ppl&#39;s card)" style="rounded=0;whiteSpace=wrap;html=1;" parent="1" vertex="1">
          <mxGeometry x="210" y="1125" width="140" height="65" as="geometry" />
        </mxCell>
        <mxCell id="9mMsN4pHwQtWmOrZcYsb-48" value="&lt;b&gt;profile Icon&lt;br&gt;Show pressed&lt;/b&gt;" style="rounded=0;whiteSpace=wrap;html=1;" parent="1" vertex="1">
          <mxGeometry x="490" y="1125" width="120" height="65" as="geometry" />
        </mxCell>
        <mxCell id="9mMsN4pHwQtWmOrZcYsb-50" value="&lt;b&gt;Card Icon&lt;br&gt;(other ppl&#39;s card)&lt;br&gt;Show pressed&lt;/b&gt;" style="rounded=0;whiteSpace=wrap;html=1;" parent="1" vertex="1">
          <mxGeometry x="-413" y="1125" width="140" height="65" as="geometry" />
        </mxCell>
        <mxCell id="9mMsN4pHwQtWmOrZcYsb-51" value="profile Icon" style="rounded=0;whiteSpace=wrap;html=1;" parent="1" vertex="1">
          <mxGeometry x="-133" y="1125" width="120" height="65" as="geometry" />
        </mxCell>
        <mxCell id="9mMsN4pHwQtWmOrZcYsb-53" value="&lt;font size=&quot;3&quot;&gt;Picture of the user&lt;/font&gt;" style="whiteSpace=wrap;html=1;aspect=fixed;" parent="1" vertex="1">
          <mxGeometry x="220" y="680" width="190" height="190" as="geometry" />
        </mxCell>
        <mxCell id="9mMsN4pHwQtWmOrZcYsb-54" value="&lt;font style=&quot;font-size: 18px&quot;&gt;Name:&lt;/font&gt;" style="text;html=1;strokeColor=none;fillColor=none;align=center;verticalAlign=middle;whiteSpace=wrap;rounded=0;" parent="1" vertex="1">
          <mxGeometry x="400" y="680" width="120" height="70" as="geometry" />
        </mxCell>
        <mxCell id="9mMsN4pHwQtWmOrZcYsb-55" value="&lt;font style=&quot;font-size: 18px&quot;&gt;Phone:&lt;/font&gt;" style="text;html=1;strokeColor=none;fillColor=none;align=center;verticalAlign=middle;whiteSpace=wrap;rounded=0;" parent="1" vertex="1">
          <mxGeometry x="400" y="750" width="120" height="70" as="geometry" />
        </mxCell>
        <mxCell id="9mMsN4pHwQtWmOrZcYsb-56" value="&lt;font style=&quot;font-size: 18px&quot;&gt;Email:&lt;/font&gt;" style="text;html=1;strokeColor=none;fillColor=none;align=center;verticalAlign=middle;whiteSpace=wrap;rounded=0;" parent="1" vertex="1">
          <mxGeometry x="400" y="820" width="120" height="70" as="geometry" />
        </mxCell>
        <mxCell id="9mMsN4pHwQtWmOrZcYsb-57" value="&lt;font style=&quot;font-size: 18px&quot;&gt;My Business:&lt;/font&gt;" style="text;html=1;strokeColor=none;fillColor=none;align=center;verticalAlign=middle;whiteSpace=wrap;rounded=0;" parent="1" vertex="1">
          <mxGeometry x="220" y="920" width="120" height="70" as="geometry" />
        </mxCell>
        <mxCell id="9mMsN4pHwQtWmOrZcYsb-58" value="&lt;font size=&quot;3&quot;&gt;My card preview( modify upon click)&lt;/font&gt;" style="rounded=0;whiteSpace=wrap;html=1;" parent="1" vertex="1">
          <mxGeometry x="230" y="980" width="360" height="110" as="geometry" />
        </mxCell>
        <mxCell id="9mMsN4pHwQtWmOrZcYsb-61" style="edgeStyle=orthogonalEdgeStyle;rounded=0;orthogonalLoop=1;jettySize=auto;html=1;exitX=0.5;exitY=1;exitDx=0;exitDy=0;entryX=0.5;entryY=1;entryDx=0;entryDy=0;" parent="1" source="9mMsN4pHwQtWmOrZcYsb-58" target="9mMsN4pHwQtWmOrZcYsb-29" edge="1">
          <mxGeometry relative="1" as="geometry">
            <Array as="points">
              <mxPoint x="410" y="1300" />
              <mxPoint x="-790" y="1300" />
            </Array>
          </mxGeometry>
        </mxCell>
        <mxCell id="9mMsN4pHwQtWmOrZcYsb-62" value="&lt;font size=&quot;3&quot;&gt;X&lt;/font&gt;" style="rounded=0;whiteSpace=wrap;html=1;" parent="1" vertex="1">
          <mxGeometry x="-393" y="680" width="43" height="40" as="geometry" />
        </mxCell>
        <mxCell id="9mMsN4pHwQtWmOrZcYsb-63" value="&lt;font size=&quot;3&quot;&gt;Delete profile (show warring upon click)&lt;/font&gt;" style="rounded=0;whiteSpace=wrap;html=1;" parent="1" vertex="1">
          <mxGeometry x="220" y="880" width="190" height="30" as="geometry" />
        </mxCell>
        <mxCell id="9mMsN4pHwQtWmOrZcYsb-65" value="" style="rounded=0;whiteSpace=wrap;html=1;" parent="1" vertex="1">
          <mxGeometry x="841" y="680" width="400" height="520" as="geometry" />
        </mxCell>
        <mxCell id="9mMsN4pHwQtWmOrZcYsb-70" value="&lt;font style=&quot;font-size: 36px&quot;&gt;QR Code&lt;/font&gt;" style="rounded=0;whiteSpace=wrap;html=1;" parent="1" vertex="1">
          <mxGeometry x="916" y="750" width="264" height="230" as="geometry" />
        </mxCell>
        <mxCell id="rYvVYvr-aN55mm1ivZtI-2" style="edgeStyle=orthogonalEdgeStyle;rounded=0;orthogonalLoop=1;jettySize=auto;html=1;exitX=1;exitY=0.5;exitDx=0;exitDy=0;entryX=0;entryY=0.5;entryDx=0;entryDy=0;" edge="1" parent="1" source="9mMsN4pHwQtWmOrZcYsb-75" target="9mMsN4pHwQtWmOrZcYsb-70">
          <mxGeometry relative="1" as="geometry" />
        </mxCell>
        <mxCell id="9mMsN4pHwQtWmOrZcYsb-75" value="&lt;font style=&quot;font-size: 18px&quot;&gt;My QR&lt;/font&gt;" style="text;html=1;strokeColor=none;fillColor=none;align=center;verticalAlign=middle;whiteSpace=wrap;rounded=0;" parent="1" vertex="1">
          <mxGeometry x="400" y="880" width="120" height="70" as="geometry" />
        </mxCell>
        <mxCell id="9mMsN4pHwQtWmOrZcYsb-82" style="edgeStyle=orthogonalEdgeStyle;rounded=0;orthogonalLoop=1;jettySize=auto;html=1;exitX=0;exitY=0.5;exitDx=0;exitDy=0;" parent="1" source="rYvVYvr-aN55mm1ivZtI-1" target="9mMsN4pHwQtWmOrZcYsb-83" edge="1">
          <mxGeometry relative="1" as="geometry">
            <mxPoint x="962.7647058823532" y="1330" as="targetPoint" />
          </mxGeometry>
        </mxCell>
        <mxCell id="9mMsN4pHwQtWmOrZcYsb-83" value="&lt;font style=&quot;font-size: 14px&quot;&gt;opens Camera&lt;/font&gt;" style="rounded=0;whiteSpace=wrap;html=1;" parent="1" vertex="1">
          <mxGeometry x="-379.99529411764684" y="580" width="120" height="60" as="geometry" />
        </mxCell>
        <mxCell id="rYvVYvr-aN55mm1ivZtI-1" value="&lt;font size=&quot;3&quot;&gt;+&lt;/font&gt;" style="rounded=0;whiteSpace=wrap;html=1;" vertex="1" parent="1">
          <mxGeometry x="-250" y="685" width="30" height="30" as="geometry" />
        </mxCell>
      </root>
    </mxGraphModel>
  </diagram>
  <diagram id="aXbzZNU5hTzEgHrowIfl" name="Page-2">
    <mxGraphModel dx="700" dy="780" grid="1" gridSize="10" guides="1" tooltips="1" connect="1" arrows="1" fold="1" page="1" pageScale="1" pageWidth="827" pageHeight="1169" math="0" shadow="0">
      <root>
        <mxCell id="2vdQqJ7IsvbcBj_axR_b-0" />
        <mxCell id="2vdQqJ7IsvbcBj_axR_b-1" parent="2vdQqJ7IsvbcBj_axR_b-0" />
      </root>
    </mxGraphModel>
  </diagram>
</mxfile>
